HIERARCHY
ROOT Hips
{
	OFFSET 49.220402 -7.686303 81.792702
	CHANNELS 6 Xposition Yposition Zposition Xrotation Yrotation Zrotation
	JOINT spine
	{
		OFFSET 0.000000 -0.359108 6.244789
		CHANNELS 3 Xrotation Yrotation Zrotation
		JOINT spine1
		{
			OFFSET 0.000000 -0.000002 9.069412
			CHANNELS 3 Xrotation Yrotation Zrotation
			JOINT spine2
			{
				OFFSET 0.000000 -0.000001 8.690140
				CHANNELS 3 Xrotation Yrotation Zrotation
				JOINT Neck
				{
					OFFSET 0.000000 -1.063724 22.311203
					CHANNELS 3 Xrotation Yrotation Zrotation
					JOINT Head
					{
						OFFSET 0.000000 -0.000001 6.740814
						CHANNELS 3 Xrotation Yrotation Zrotation
						End Site
						{
							OFFSET 0.000000 5.380967 16.316498
						}
					}
				}
				JOINT RightShoulder
				{
					OFFSET -3.659161 0.509512 9.384682
					CHANNELS 3 Xrotation Yrotation Zrotation
					JOINT RightArm
					{
						OFFSET 0.000000 -0.000002 12.308899
						CHANNELS 3 Xrotation Yrotation Zrotation
						JOINT RightArmRoll
						{
							OFFSET 0.000000 -0.000001 6.213753
							CHANNELS 3 Xrotation Yrotation Zrotation
							JOINT RightForeArm
							{
								OFFSET 0.000000 -0.000003 18.098495
								CHANNELS 3 Xrotation Yrotation Zrotation
								JOINT RightForeArmRoll
								{
									OFFSET 0.000000 -0.000001 6.972794
									CHANNELS 3 Xrotation Yrotation Zrotation
									JOINT RightHand
									{
										OFFSET 0.000000 -0.000002 13.992905
										CHANNELS 3 Xrotation Yrotation Zrotation
										End Site
										{
											OFFSET 0.000000 0.000000 0.100006
										}
									}
								}
							}
						}
					}
				}
				JOINT LeftShoulder
				{
					OFFSET 3.659161 0.509512 9.384682
					CHANNELS 3 Xrotation Yrotation Zrotation
					JOINT LeftArm
					{
						OFFSET 0.000000 -0.000002 12.308899
						CHANNELS 3 Xrotation Yrotation Zrotation
						JOINT LeftArmRoll
						{
							OFFSET 0.000000 -0.000001 6.213753
							CHANNELS 3 Xrotation Yrotation Zrotation
							JOINT LeftForeArm
							{
								OFFSET 0.000000 -0.000003 18.098495
								CHANNELS 3 Xrotation Yrotation Zrotation
								JOINT LeftForeArmRoll
								{
									OFFSET 0.000000 -0.000001 6.972794
									CHANNELS 3 Xrotation Yrotation Zrotation
									JOINT LeftHand
									{
										OFFSET 0.000000 -0.000002 13.992905
										CHANNELS 3 Xrotation Yrotation Zrotation
										End Site
										{
											OFFSET 0.000000 0.000000 0.100006
										}
									}
								}
							}
						}
					}
				}
			}
		}
	}
	JOINT RightUpLeg
	{
		OFFSET -5.535149 0.851454 -1.014999
		CHANNELS 3 Xrotation Yrotation Zrotation
		JOINT RightUpLegRoll
		{
			OFFSET 0.000000 -0.000002 16.407501
			CHANNELS 3 Xrotation Yrotation Zrotation
			JOINT RightLeg
			{
				OFFSET 0.000000 0.000003 -20.318100
				CHANNELS 3 Xrotation Yrotation Zrotation
				JOINT RightLegRoll
				{
					OFFSET 0.000000 -0.000003 20.384598
					CHANNELS 3 Xrotation Yrotation Zrotation
					JOINT RightFoot
					{
						OFFSET 0.000000 -0.000003 16.966805
						CHANNELS 3 Xrotation Yrotation Zrotation
						JOINT RightToeBase
						{
							OFFSET 0.000000 -0.000002 14.183395
							CHANNELS 3 Xrotation Yrotation Zrotation
							End Site
							{
								OFFSET 0.006012 0.791745 6.868896
							}
						}
					}
				}
			}
		}
	}
	JOINT LeftUpLeg
	{
		OFFSET 5.535149 0.851454 -1.014999
		CHANNELS 3 Xrotation Yrotation Zrotation
		JOINT LeftUpLegRoll
		{
			OFFSET 0.000000 -0.000002 16.407600
			CHANNELS 3 Xrotation Yrotation Zrotation
			JOINT LeftLeg
			{
				OFFSET 0.000000 -0.000003 20.318100
				CHANNELS 3 Xrotation Yrotation Zrotation
				JOINT LeftLegRoll
				{
					OFFSET 0.000000 -0.000003 20.573105
					CHANNELS 3 Xrotation Yrotation Zrotation
					JOINT LeftFoot
					{
						OFFSET 0.000000 -0.000003 16.778305
						CHANNELS 3 Xrotation Yrotation Zrotation
						JOINT LeftToeBase
						{
							OFFSET 0.000000 -0.000002 14.183395
							CHANNELS 3 Xrotation Yrotation Zrotation
							End Site
							{
								OFFSET -0.026943 0.791745 6.868896
							}
						}
					}
				}
			}
		}
	}
}
MOTION
Frames: 8
Frame Time: 0.041667
40.247498 -4.934345 83.704002 1.019216 -0.744383 0.835411 -1.107071 0.099826 -0.057143 1.788784 0.224633 -0.113199 3.433856 0.223259 -0.115880 12.205997 -5.122464 1.612835 6.294127 8.104601 1.016286 -10.527452 -64.173910 -12.672009 -43.282834 -121.709449 -83.653445 -0.000003 0.000002 0.000005 71.968740 -12.756721 5.821675 -0.000006 -0.000000 -3.000001 -4.999736 -7.998716 -0.000019 -10.333975 61.015029 12.278752 -29.157289 122.569193 54.789927 0.000001 -0.000004 0.000001 72.163462 7.104078 -0.979713 0.000000 -0.000006 3.000001 -4.999853 7.999255 -0.000045 -12.346598 -176.294477 0.236366 -179.999991 0.000005 -0.919007 162.542902 -0.952036 -1.248381 -0.000003 0.000002 0.158215 70.381076 6.283870 3.688238 25.456955 -7.348901 -0.000000 -6.860452 174.308777 -1.759898 -0.000005 -0.000005 -0.799302 -15.178419 0.086814 1.221502 0.000004 -0.000000 -0.173101 73.233691 -5.681883 -5.301495 25.461615 7.347637 -0.010398 
40.196896 -4.883705 83.690598 1.002176 -0.751949 0.850181 -1.104452 0.099806 -0.056663 1.794014 0.223835 -0.112204 3.439096 0.222473 -0.114874 12.187748 -5.097666 1.626404 6.307989 8.104220 1.027230 -10.513641 -64.151070 -12.654910 -43.217827 -121.738246 -83.551826 -0.000002 0.000001 0.000002 71.971684 -12.741895 5.808190 -0.000005 -0.000001 -3.000000 -4.999735 -7.998718 -0.000020 -10.335712 61.019742 12.281048 -29.164307 122.591227 54.801961 -0.000000 -0.000004 0.000006 72.187019 7.096606 -0.973788 -0.000001 -0.000008 3.000000 -4.999854 7.999256 -0.000046 -12.330586 -176.300119 0.235722 -179.999991 0.000005 -0.919007 162.531919 -0.949125 -1.248677 -0.000002 0.000002 0.158215 70.390044 6.280213 3.696697 25.456957 -7.348901 -0.000000 -6.853398 174.308682 -1.758298 -0.000004 -0.000004 -0.799735 -15.194514 0.079606 1.220570 0.000005 0.000000 -0.173720 73.239907 -5.684390 -5.295051 25.461617 7.347636 -0.010396 
40.189896 -4.888865 83.698303 0.985131 -0.759594 0.864584 -1.101813 0.099776 -0.056156 1.799294 0.223020 -0.111134 3.444377 0.221670 -0.113792 12.168575 -5.072079 1.640057 6.323074 8.102902 1.038244 -10.497684 -64.128072 -12.635337 -43.152326 -121.766850 -83.448895 -0.000003 0.000002 0.000007 71.974956 -12.726640 5.794517 -0.000006 -0.000001 -3.000000 -4.999736 -7.998718 -0.000021 -10.337619 61.024639 12.283549 -29.169808 122.612892 54.811206 -0.000001 -0.000004 0.000003 72.212141 7.088454 -0.967163 -0.000002 -0.000006 3.000001 -4.999852 7.999259 -0.000044 -12.314771 -176.305761 0.234969 -179.999991 0.000005 -0.919007 162.520526 -0.946199 -1.248960 -0.000003 0.000002 0.158215 70.399204 6.276464 3.705231 25.456955 -7.348901 -0.000000 -6.846211 174.309597 -1.756679 -0.000005 -0.000004 -0.800144 -15.210710 0.072323 1.219644 0.000005 -0.000000 -0.174319 73.246231 -5.686856 -5.288792 25.461613 7.347637 -0.010397 
40.193993 -4.952823 83.708900 0.968075 -0.767295 0.878727 -1.099151 0.099739 -0.055630 1.804604 0.222194 -0.110012 3.449686 0.220855 -0.112658 12.148796 -5.045962 1.653785 6.338999 8.100935 1.049317 -10.480244 -64.104884 -12.614045 -43.087600 -121.794567 -83.346422 -0.000002 0.000002 0.000003 71.978309 -12.711127 5.780390 -0.000005 -0.000001 -3.000000 -4.999735 -7.998721 -0.000020 -10.339604 61.029523 12.286155 -29.174494 122.634325 54.818665 -0.000001 -0.000004 0.000004 72.238683 7.079760 -0.960210 -0.000001 -0.000010 3.000000 -4.999853 7.999260 -0.000044 -12.298869 -176.310419 0.233936 -179.999991 0.000005 -0.919007 162.509052 -0.942322 -1.247947 -0.000003 0.000002 0.158215 70.408445 6.272652 3.714049 25.456948 -7.348901 0.000000 -6.838951 174.310498 -1.754977 -0.000005 -0.000005 -0.800539 -15.226910 0.064987 1.218710 0.000004 -0.000000 -0.174906 73.252741 -5.689289 -5.282520 25.461615 7.347637 -0.010396 
40.169701 -4.931492 83.704407 0.951011 -0.775033 0.892720 -1.096490 0.099698 -0.055093 1.809934 0.221361 -0.108859 3.455016 0.220034 -0.111493 12.128519 -5.019527 1.667543 6.355409 8.098613 1.060422 -10.461985 -64.081654 -12.591784 -43.023802 -121.821478 -83.244706 -0.000002 0.000001 0.000003 71.981786 -12.695443 5.766304 -0.000006 -0.000002 -3.000001 -4.999737 -7.998717 -0.000019 -10.341670 61.034523 12.288853 -29.177721 122.656469 54.824118 -0.000002 -0.000004 0.000005 72.265778 7.070851 -0.953022 -0.000001 -0.000006 3.000001 -4.999852 7.999258 -0.000044 -12.283156 -176.316061 0.233070 -179.999991 0.000005 -0.919007 162.497577 -0.938458 -1.247933 -0.000003 0.000002 0.158215 70.417686 6.268843 3.722867 25.456955 -7.348901 -0.000000 -6.831645 174.311414 -1.753211 -0.000005 -0.000005 -0.800924 -15.243109 0.057620 1.217772 0.000004 0.000001 -0.175484 73.259263 -5.691717 -5.276350 25.461617 7.347636 -0.010397 
40.163898 -4.949214 83.707695 0.933951 -0.782786 0.906672 -1.093824 0.099657 -0.054554 1.815263 0.220525 -0.107699 3.460356 0.219213 -0.110321 12.108143 -4.993030 1.681329 6.371946 8.096197 1.071532 -10.443521 -64.058336 -12.569280 -42.959981 -121.848375 -83.142902 -0.000001 0.000002 0.000007 71.985290 -12.679762 5.752115 -0.000007 -0.000001 -3.000001 -4.999735 -7.998720 -0.000019 -10.343784 61.039604 12.291605 -29.181720 122.677724 54.830283 -0.000001 -0.000004 0.000004 72.293161 7.061816 -0.945768 -0.000001 -0.000004 3.000001 -4.999854 7.999257 -0.000045 -12.267359 -176.320732 0.231976 -179.999991 0.000005 -0.919007 162.485897 -0.934581 -1.247917 -0.000003 0.000002 0.158215 70.427016 6.264969 3.731771 25.456953 -7.348899 -0.000000 -6.824328 174.312315 -1.751434 -0.000005 -0.000005 -0.801306 -15.259307 0.050247 1.216828 0.000004 0.000000 -0.176060 73.265882 -5.694114 -5.270065 25.461620 7.347637 -0.010397 
40.144596 -4.948234 83.703209 0.916892 -0.790534 0.920692 -1.091162 0.099617 -0.054021 1.820594 0.219694 -0.106553 3.465675 0.218394 -0.109164 12.088071 -4.966699 1.695130 6.388238 8.093976 1.082635 -10.425530 -64.035093 -12.547342 -42.895309 -121.876106 -83.040238 -0.000002 0.000002 0.000007 71.988794 -12.664086 5.738029 -0.000005 -0.000001 -3.000001 -4.999735 -7.998718 -0.000020 -10.345812 61.044481 12.294250 -29.185122 122.699922 54.835983 -0.000000 -0.000004 0.000004 72.320071 7.052994 -0.938647 -0.000002 -0.000009 3.000001 -4.999854 7.999258 -0.000044 -12.251546 -176.326360 0.231120 -179.999991 0.000005 -0.919007 162.474409 -0.931656 -1.248197 -0.000003 0.000002 0.158215 70.436258 6.261164 3.740592 25.456957 -7.348900 -0.000001 -6.817040 174.313230 -1.749684 -0.000005 -0.000005 -0.801694 -15.275501 0.042890 1.215873 0.000004 -0.000000 -0.176640 73.272405 -5.696537 -5.263889 25.461617 7.347637 -0.010397 
40.127499 -4.965595 83.705704 0.899838 -0.798256 0.934890 -1.088514 0.099583 -0.053500 1.825894 0.218872 -0.105445 3.470975 0.217583 -0.108044 12.068420 -4.940776 1.708909 6.403922 8.092230 1.093694 -10.408656 -64.011959 -12.526675 -42.831041 -121.904001 -82.938434 -0.000003 0.000001 0.000003 71.992113 -12.648694 5.723979 -0.000007 0.000002 -3.000000 -4.999736 -7.998719 -0.000019 -10.347819 61.049481 12.296873 -29.190128 122.721438 54.844087 -0.000000 -0.000004 0.000005 72.346156 7.044521 -0.931812 -0.000001 -0.000004 3.000001 -4.999853 7.999255 -0.000045 -12.235735 -176.332016 0.230302 -179.999991 0.000005 -0.919007 162.463030 -0.927781 -1.248187 -0.000004 0.000002 0.158215 70.445512 6.257388 3.749321 25.456955 -7.348901 0.000000 -6.809807 174.314132 -1.747999 -0.000005 -0.000005 -0.802092 -15.291702 0.035571 1.214925 0.000004 0.000000 -0.177230 73.278832 -5.698988 -5.257524 25.461617 7.347636 -0.010397 
